<svg width="94" height="94" viewBox="0 0 94 94" fill="none" xmlns="http://www.w3.org/2000/svg">
<g filter="url(#filter0_d_686_7953)">
<circle cx="46" cy="46" r="45" fill="white"/>
</g>
<path d="M35.8274 24C33.7953 28.591 34.9025 31.693 39.4191 32.8683C45.0091 34.3194 49.3298 37.2732 52.7999 41.9262C54.9704 44.8386 57.5966 47.3995 60.0068 50.1258C61.33 51.6217 61.3807 53.2761 60.1655 54.3687C58.9874 55.4268 57.4582 55.2476 56.1721 53.8207C52.5603 49.8018 48.972 45.7623 45.3736 41.7297C45.107 41.4333 44.847 41.13 44.5702 40.8474C44.0639 40.3338 43.4698 40.1891 42.9297 40.7198C42.4571 41.1817 42.5415 41.7676 42.9297 42.2743C43.1693 42.5914 43.4529 42.874 43.7162 43.1704C48.2159 48.2267 52.7088 53.2864 57.2152 58.3393C57.9106 59.1182 58.5891 59.9178 58.4473 61.0518C58.3123 62.1478 57.7485 62.9751 56.665 63.3404C55.443 63.7506 54.4641 63.3335 53.6404 62.4063C50.275 58.6253 46.9095 54.8443 43.544 51.0633C42.106 49.4503 40.6748 47.8303 39.2368 46.2173C38.7102 45.6245 38.1093 45.1385 37.3735 45.8278C36.6106 46.5447 37.1372 47.1686 37.6503 47.7407C41.4275 51.9939 45.2082 56.2437 48.9855 60.4969C49.2488 60.7933 49.529 61.0794 49.772 61.393C50.7779 62.6821 50.7239 64.2676 49.6505 65.2568C48.5365 66.2839 47.031 66.2563 45.88 65.0258C43.939 62.9509 42.0757 60.8002 40.182 58.677C38.025 56.2575 35.8713 53.831 33.7109 51.4149C33.208 50.8531 32.6409 50.2017 31.8712 50.891C31.051 51.6251 31.5708 52.3248 32.1312 52.9521C34.592 55.7129 37.0494 58.4737 39.5102 61.2345C39.7735 61.5309 40.0469 61.8204 40.3069 62.1237C41.6267 63.6609 41.701 65.274 40.5094 66.3804C39.3043 67.5005 37.7279 67.2937 36.381 65.7875C32.7793 61.7584 29.191 57.7188 25.6095 53.6724C24.7825 52.735 23.9015 51.825 23.2061 50.791C19.4929 45.2591 18.9528 39.3618 21.8592 33.3612C24.6508 27.6087 29.4408 24.679 35.8274 24Z" fill="#EB5636"/>
<path d="M60.6627 60.9351C60.1569 59.9231 59.768 59.1474 59.3413 58.2906C61.3509 57.5748 62.779 56.3125 63.1816 54.1475C63.5051 52.4056 62.9132 50.9247 61.7639 49.6341C58.3262 45.7731 54.8988 41.9051 51.4748 38.0335C50.9483 37.4376 50.353 36.944 50.5113 35.932C50.6696 34.9271 49.7267 34.7684 49.0419 34.5286C46.0137 33.4567 42.9786 32.4095 39.9435 31.3481C39.5099 31.1965 39.0694 31.0625 38.6565 30.8651C36.9806 30.0682 36.1926 28.7671 36.4679 27.2897C36.7501 25.7805 37.8685 25.0013 39.8574 25.026C45.1293 25.093 50.4046 25.093 55.6696 25.2975C62.8891 25.576 68.1369 29.1726 70.8933 35.9778C73.6565 42.7972 72.3661 49.1405 67.459 54.5424C65.3943 56.8061 62.9993 58.7525 60.6627 60.9351Z" fill="#EB5636"/>
<g filter="url(#filter1_d_686_7953)">
<circle cx="46" cy="46" r="45" fill="white"/>
</g>
<path d="M55.7467 60.9608C55.0097 59.7065 54.2727 58.4521 53.4241 57.0044C52.8486 57.9598 52.3318 58.798 51.8355 59.6449C50.9253 61.1982 50.9312 61.2011 50.062 59.7035C49.6216 58.9445 49.1841 58.1825 48.7378 57.4264C48.6908 57.3444 48.5998 57.2887 48.3971 57.0953C47.6366 58.3847 46.8908 59.6449 46.0775 61.0223C44.9441 59.8618 44.5594 58.2851 43.4612 57.0894C42.6626 58.4463 41.905 59.7299 41.0535 61.1747C40.2196 59.7504 39.4679 58.4668 38.5899 56.9663C37.7091 58.4668 36.9574 59.7504 36.1235 61.1688C35.4569 60.0376 34.8667 59.0412 34.2853 58.0418C33.9477 57.4616 34.2149 56.9106 34.3734 56.3509C35.1604 53.6166 35.7828 50.8559 35.2073 47.9926C34.5026 44.4759 32.5382 42.8962 28.9501 42.9285C28.172 42.9343 27.3909 43.0281 26.6187 43.1366C25.1828 43.3358 23.979 43.5205 24.1581 45.6276C24.3049 47.3567 22.3552 48.5495 20.4995 48.2916C18.7494 48.0483 17.5103 46.3427 17.7893 44.5667C18.0653 42.8025 19.7683 41.4514 21.5125 41.8881C22.5842 42.1577 23.1627 41.8676 23.9173 41.1935C27.7492 37.7705 33.3633 37.8028 37.2774 41.1965C40.9713 44.3967 42.9239 43.8634 44.4097 39.2153C44.7356 38.1955 44.9382 37.1375 45.2083 36.1001C45.5548 34.7842 45.8132 33.694 44.2658 32.6858C42.7477 31.6982 42.9445 29.298 44.301 28.0408C45.6664 26.7747 47.7893 26.892 49.0167 28.3045C50.2265 29.6966 50.1061 31.962 48.5352 32.9496C47.4693 33.6207 47.437 34.2831 47.6748 35.3205C48.1446 37.3661 48.5352 39.4322 49.51 41.3107C50.5612 43.3329 51.8502 43.7315 53.8469 42.6325C54.5222 42.2603 55.133 41.7474 55.7232 41.2375C59.8164 37.709 65.4453 37.7676 69.421 41.4309C69.9583 41.9262 70.3577 42.187 71.1857 41.9496C73.1559 41.387 75.0205 42.6911 75.2789 44.637C75.5255 46.4892 74.1836 48.1685 72.3397 48.3121C70.2872 48.4733 68.6664 47.049 68.822 44.9711C68.9071 43.8253 68.4344 43.5322 67.5183 43.3534C66.4612 43.1483 65.4129 42.9343 64.3295 42.9168C60.2979 42.8552 58.0458 44.8949 57.6905 48.9217C57.4762 51.3453 57.943 53.6752 58.5685 55.9963C58.7065 56.5091 59.4347 57.1451 58.0869 57.526C57.4116 57.7165 57.0886 59.1057 56.5806 59.9409C56.3721 60.2955 56.2811 60.7703 55.7467 60.9608Z" fill="#F9AC31"/>
<path d="M34.1067 60.4835C34.9148 61.5904 35.6058 62.5395 36.3825 63.607C37.1962 62.4908 37.9187 61.4999 38.7039 60.4255C39.7547 61.3375 40.2087 62.4977 41.2081 63.549C42.0019 62.4769 42.7386 61.479 43.521 60.4185C44.5746 61.3189 44.9629 62.5186 46.0394 63.535C46.819 62.4629 47.5471 61.4558 48.3837 60.3025C49.1946 61.4256 49.9228 62.4351 50.7765 63.6186C51.6246 62.456 52.3584 61.4488 53.1894 60.3048C54.006 61.4419 54.7341 62.4513 55.5822 63.6279C56.4217 62.4583 57.1498 61.4465 57.8894 60.4208C58.0835 60.5462 58.172 60.5786 58.2177 60.6343C59.0972 61.7807 60.2194 62.9294 59.2085 64.3565C58.2691 65.6816 56.5702 65.5284 55.0082 65.5307C49.4031 65.5354 43.7979 65.533 38.1928 65.533C33.6584 65.5354 32.5562 64.2521 34.1067 60.4835Z" fill="#F9AC31"/>
<defs>
<filter id="filter0_d_686_7953" x="0" y="0" width="94" height="94" filterUnits="userSpaceOnUse" color-interpolation-filters="sRGB">
<feFlood flood-opacity="0" result="BackgroundImageFix"/>
<feColorMatrix in="SourceAlpha" type="matrix" values="0 0 0 0 0 0 0 0 0 0 0 0 0 0 0 0 0 0 127 0" result="hardAlpha"/>
<feOffset dx="1" dy="1"/>
<feGaussianBlur stdDeviation="1"/>
<feComposite in2="hardAlpha" operator="out"/>
<feColorMatrix type="matrix" values="0 0 0 0 0 0 0 0 0 0 0 0 0 0 0 0 0 0 0.05 0"/>
<feBlend mode="normal" in2="BackgroundImageFix" result="effect1_dropShadow_686_7953"/>
<feBlend mode="normal" in="SourceGraphic" in2="effect1_dropShadow_686_7953" result="shape"/>
</filter>
<filter id="filter1_d_686_7953" x="0" y="0" width="94" height="94" filterUnits="userSpaceOnUse" color-interpolation-filters="sRGB">
<feFlood flood-opacity="0" result="BackgroundImageFix"/>
<feColorMatrix in="SourceAlpha" type="matrix" values="0 0 0 0 0 0 0 0 0 0 0 0 0 0 0 0 0 0 127 0" result="hardAlpha"/>
<feOffset dx="1" dy="1"/>
<feGaussianBlur stdDeviation="1"/>
<feComposite in2="hardAlpha" operator="out"/>
<feColorMatrix type="matrix" values="0 0 0 0 0 0 0 0 0 0 0 0 0 0 0 0 0 0 0.05 0"/>
<feBlend mode="normal" in2="BackgroundImageFix" result="effect1_dropShadow_686_7953"/>
<feBlend mode="normal" in="SourceGraphic" in2="effect1_dropShadow_686_7953" result="shape"/>
</filter>
</defs>
</svg>
